<?xml version="1.0" standalone="no"?>
<!DOCTYPE svg PUBLIC "-//W3C//DTD SVG 20010904//EN"
 "http://www.w3.org/TR/2001/REC-SVG-20010904/DTD/svg10.dtd">
<svg version="1.0" xmlns="http://www.w3.org/2000/svg"
 width="1032.000000pt" height="1032.000000pt" viewBox="0 0 1032.000000 1032.000000"
 preserveAspectRatio="xMidYMid meet">
<metadata>
Created by potrace 1.11, written by Peter Selinger 2001-2013
</metadata>
<g transform="translate(0.000000,1032.000000) scale(0.100000,-0.100000)"
fill="#000000" stroke="none">
<path d="M5053 10310 c-81 -9 -197 -41 -257 -72 -103 -52 -3829 -2206 -3882
-2244 -165 -117 -303 -351 -334 -569 -13 -96 -13 -4434 0 -4530 14 -96 44
-182 103 -300 44 -85 65 -114 147 -195 l95 -95 1931 -1113 c1063 -612 1959
-1124 1992 -1137 174 -71 450 -71 624 0 33 13 929 525 1992 1137 l1931 1113
91 90 c95 94 153 179 204 302 64 153 60 -2 60 2463 0 2471 4 2309 -62 2467
-56 136 -177 293 -281 366 -70 50 -3824 2217 -3903 2254 -116 53 -302 79 -451
63z m506 -2115 c577 -80 1107 -312 1556 -680 213 -175 441 -427 592 -655 90
-136 110 -172 98 -177 -5 -2 -305 -174 -665 -383 -557 -322 -656 -377 -665
-363 -64 101 -150 208 -240 298 -211 213 -462 349 -766 417 -90 20 -131 23
-309 23 -224 0 -288 -9 -470 -67 -355 -113 -669 -370 -859 -703 -330 -578
-231 -1333 236 -1811 676 -692 1814 -589 2360 214 31 45 60 82 64 82 9 0 1291
-740 1307 -755 10 -9 -5 -39 -78 -148 -126 -190 -231 -319 -395 -482 -236
-236 -480 -414 -770 -562 -455 -231 -882 -334 -1385 -336 -378 -1 -673 48
-1020 169 -622 216 -1176 646 -1534 1189 -124 189 -135 206 -190 315 -143 278
-246 601 -298 935 -20 122 -22 179 -22 445 0 266 2 323 22 445 108 686 406
1266 898 1746 506 493 1148 790 1857 859 134 13 541 4 676 -15z m2321 -2695
l0 -170 170 0 170 0 0 -170 0 -170 -170 0 -170 0 0 -170 0 -170 -170 0 -170 0
0 170 0 170 -170 0 -170 0 0 170 0 170 170 0 170 0 0 170 0 170 170 0 170 0 0
-170z m1280 0 l0 -170 170 0 170 0 0 -170 0 -170 -170 0 -170 0 0 -170 0 -170
-175 0 -175 0 0 170 0 170 -170 0 -170 0 0 170 0 170 170 0 170 0 0 170 0 170
175 0 175 0 0 -170z"/>
</g>
</svg>
